{
	"asset":{
		"generator":"Khronos glTF Blender I/O v4.1.63",
		"version":"2.0"
	},
	"scene":0,
	"scenes":[
		{
			"name":"Scene",
			"nodes":[
				0
			]
		}
	],
	"nodes":[
		{
			"mesh":0,
			"name":"FloppyDisk.001",
			"scale":[
				0.09638195484876633,
				0.09638195484876633,
				0.09638195484876633
			]
		}
	],
	"materials":[
		{
			"doubleSided":true,
			"emissiveFactor":[
				0.02217385172843933,
				0.3967552185058594,
				0.9911019802093506
			],
			"name":"Material.002",
			"pbrMetallicRoughness":{
				"metallicFactor":0,
				"roughnessFactor":0.5
			}
		}
	],
	"meshes":[
		{
			"name":"New object.005",
			"primitives":[
				{
					"attributes":{
						"POSITION":0,
						"NORMAL":1,
						"TEXCOORD_0":2
					},
					"indices":3,
					"material":0
				}
			]
		}
	],
	"accessors":[
		{
			"bufferView":0,
			"componentType":5126,
			"count":30094,
			"max":[
				15.576385498046875,
				0.1711287498474121,
				15.793169021606445
			],
			"min":[
				-15.870315551757812,
				-0.7051713466644287,
				-16.482131958007812
			],
			"type":"VEC3"
		},
		{
			"bufferView":1,
			"componentType":5126,
			"count":30094,
			"type":"VEC3"
		},
		{
			"bufferView":2,
			"componentType":5126,
			"count":30094,
			"type":"VEC2"
		},
		{
			"bufferView":3,
			"componentType":5123,
			"count":55863,
			"type":"SCALAR"
		}
	],
	"bufferViews":[
		{
			"buffer":0,
			"byteLength":361128,
			"byteOffset":0,
			"target":34962
		},
		{
			"buffer":0,
			"byteLength":361128,
			"byteOffset":361128,
			"target":34962
		},
		{
			"buffer":0,
			"byteLength":240752,
			"byteOffset":722256,
			"target":34962
		},
		{
			"buffer":0,
			"byteLength":111726,
			"byteOffset":963008,
			"target":34963
		}
	],
	"buffers":[
		{
			"byteLength":1074736,
			"uri":"AppleComputerFloppyDisk.bin"
		}
	]
}
