{
    "asset" : {
        "generator" : "Khronos glTF Blender I/O v3.2.40",
        "version" : "2.0"
    },
    "scene" : 0,
    "scenes" : [
        {
            "name" : "Scene",
            "nodes" : [
                0
            ]
        }
    ],
    "nodes" : [
        {
            "mesh" : 0,
            "name" : "Key.025",
            "rotation" : [
                0,
                0,
                -0.10886688530445099,
                0.9940563440322876
            ],
            "scale" : [
                0.09444108605384827,
                0.09444108605384827,
                0.16724668443202972
            ],
            "translation" : [
                3.11419415473938,
                0.9696559906005859,
                -1.2288157939910889
            ]
        }
    ],
    "materials" : [
        {
            "doubleSided" : true,
            "name" : "Material.015",
            "pbrMetallicRoughness" : {
                "baseColorFactor" : [
                    0.02186525985598564,
                    0.013063960708677769,
                    0.009334064088761806,
                    1
                ],
                "metallicFactor" : 0,
                "roughnessFactor" : 0.8727272748947144
            }
        },
        {
            "doubleSided" : true,
            "name" : "Material.007",
            "pbrMetallicRoughness" : {
                "baseColorFactor" : [
                    0.02186525985598564,
                    0.013063960708677769,
                    0.009334064088761806,
                    1
                ],
                "metallicFactor" : 0,
                "roughnessFactor" : 0.8727272748947144
            }
        },
        {
            "doubleSided" : true,
            "name" : "Material.008",
            "pbrMetallicRoughness" : {
                "baseColorFactor" : [
                    0.02186525985598564,
                    0.013063960708677769,
                    0.009334064088761806,
                    1
                ],
                "metallicFactor" : 0,
                "roughnessFactor" : 0.8727272748947144
            }
        },
        {
            "doubleSided" : true,
            "name" : "Material.009",
            "pbrMetallicRoughness" : {
                "baseColorFactor" : [
                    0.02186525985598564,
                    0.013063960708677769,
                    0.009334064088761806,
                    1
                ],
                "metallicFactor" : 0,
                "roughnessFactor" : 0.8727272748947144
            }
        },
        {
            "doubleSided" : true,
            "name" : "Material.010",
            "pbrMetallicRoughness" : {
                "baseColorFactor" : [
                    0.02186525985598564,
                    0.013063960708677769,
                    0.009334064088761806,
                    1
                ],
                "metallicFactor" : 0,
                "roughnessFactor" : 0.8727272748947144
            }
        },
        {
            "doubleSided" : true,
            "name" : "Material.011",
            "pbrMetallicRoughness" : {
                "baseColorFactor" : [
                    0.02186525985598564,
                    0.013063960708677769,
                    0.009334064088761806,
                    1
                ],
                "metallicFactor" : 0,
                "roughnessFactor" : 0.8727272748947144
            }
        },
        {
            "doubleSided" : true,
            "name" : "Material.012",
            "pbrMetallicRoughness" : {
                "baseColorFactor" : [
                    0.02186525985598564,
                    0.013063960708677769,
                    0.009334064088761806,
                    1
                ],
                "metallicFactor" : 0,
                "roughnessFactor" : 0.8727272748947144
            }
        },
        {
            "doubleSided" : true,
            "name" : "Material.013",
            "pbrMetallicRoughness" : {
                "baseColorFactor" : [
                    0.02186525985598564,
                    0.013063960708677769,
                    0.009334064088761806,
                    1
                ],
                "metallicFactor" : 0,
                "roughnessFactor" : 0.8727272748947144
            }
        },
        {
            "doubleSided" : true,
            "name" : "Material.014",
            "pbrMetallicRoughness" : {
                "baseColorFactor" : [
                    0.02186525985598564,
                    0.013063960708677769,
                    0.009334064088761806,
                    1
                ],
                "metallicFactor" : 0,
                "roughnessFactor" : 0.8727272748947144
            }
        },
        {
            "doubleSided" : true,
            "name" : "MainPC.006",
            "pbrMetallicRoughness" : {
                "baseColorFactor" : [
                    0.8000000715255737,
                    0.7417610883712769,
                    0.5266092419624329,
                    1
                ],
                "metallicFactor" : 0,
                "roughnessFactor" : 0.5
            }
        },
        {
            "doubleSided" : true,
            "name" : "Chocofur_Glossy_Basic.002",
            "pbrMetallicRoughness" : {}
        }
    ],
    "meshes" : [
        {
            "name" : "Cube.046",
            "primitives" : [
                {
                    "attributes" : {
                        "POSITION" : 0,
                        "NORMAL" : 1,
                        "TEXCOORD_0" : 2
                    },
                    "indices" : 3,
                    "material" : 0
                },
                {
                    "attributes" : {
                        "POSITION" : 4,
                        "NORMAL" : 5,
                        "TEXCOORD_0" : 6
                    },
                    "indices" : 7,
                    "material" : 1
                },
                {
                    "attributes" : {
                        "POSITION" : 8,
                        "NORMAL" : 9,
                        "TEXCOORD_0" : 10
                    },
                    "indices" : 11,
                    "material" : 2
                },
                {
                    "attributes" : {
                        "POSITION" : 12,
                        "NORMAL" : 13,
                        "TEXCOORD_0" : 14
                    },
                    "indices" : 15,
                    "material" : 3
                },
                {
                    "attributes" : {
                        "POSITION" : 16,
                        "NORMAL" : 17,
                        "TEXCOORD_0" : 18
                    },
                    "indices" : 19,
                    "material" : 4
                },
                {
                    "attributes" : {
                        "POSITION" : 20,
                        "NORMAL" : 21,
                        "TEXCOORD_0" : 22
                    },
                    "indices" : 23,
                    "material" : 5
                },
                {
                    "attributes" : {
                        "POSITION" : 24,
                        "NORMAL" : 25,
                        "TEXCOORD_0" : 26
                    },
                    "indices" : 23,
                    "material" : 6
                },
                {
                    "attributes" : {
                        "POSITION" : 27,
                        "NORMAL" : 28,
                        "TEXCOORD_0" : 29
                    },
                    "indices" : 3,
                    "material" : 7
                },
                {
                    "attributes" : {
                        "POSITION" : 30,
                        "NORMAL" : 31,
                        "TEXCOORD_0" : 32
                    },
                    "indices" : 3,
                    "material" : 8
                },
                {
                    "attributes" : {
                        "POSITION" : 33,
                        "NORMAL" : 34,
                        "TEXCOORD_0" : 35
                    },
                    "indices" : 36,
                    "material" : 9
                },
                {
                    "attributes" : {
                        "POSITION" : 37,
                        "NORMAL" : 38,
                        "TEXCOORD_0" : 39
                    },
                    "indices" : 40,
                    "material" : 10
                }
            ]
        }
    ],
    "accessors" : [
        {
            "bufferView" : 0,
            "componentType" : 5126,
            "count" : 120,
            "max" : [
                1.069023609161377,
                -0.006790969520807266,
                1
            ],
            "min" : [
                -1.069023609161377,
                -1.8398475646972656,
                -1
            ],
            "type" : "VEC3"
        },
        {
            "bufferView" : 1,
            "componentType" : 5126,
            "count" : 120,
            "type" : "VEC3"
        },
        {
            "bufferView" : 2,
            "componentType" : 5126,
            "count" : 120,
            "type" : "VEC2"
        },
        {
            "bufferView" : 3,
            "componentType" : 5123,
            "count" : 228,
            "type" : "SCALAR"
        },
        {
            "bufferView" : 4,
            "componentType" : 5126,
            "count" : 1560,
            "max" : [
                -3.6132194995880127,
                0.03484737128019333,
                15.792071342468262
            ],
            "min" : [
                -5.751267433166504,
                -1.7924385070800781,
                -0.24488353729248047
            ],
            "type" : "VEC3"
        },
        {
            "bufferView" : 5,
            "componentType" : 5126,
            "count" : 1560,
            "type" : "VEC3"
        },
        {
            "bufferView" : 6,
            "componentType" : 5126,
            "count" : 1560,
            "type" : "VEC2"
        },
        {
            "bufferView" : 7,
            "componentType" : 5123,
            "count" : 2964,
            "type" : "SCALAR"
        },
        {
            "bufferView" : 8,
            "componentType" : 5126,
            "count" : 1560,
            "max" : [
                -1.183863878250122,
                0.001926124095916748,
                16.431352615356445
            ],
            "min" : [
                -3.321911573410034,
                -1.8906354904174805,
                0.3943977355957031
            ],
            "type" : "VEC3"
        },
        {
            "bufferView" : 9,
            "componentType" : 5126,
            "count" : 1560,
            "type" : "VEC3"
        },
        {
            "bufferView" : 10,
            "componentType" : 5126,
            "count" : 1560,
            "type" : "VEC2"
        },
        {
            "bufferView" : 11,
            "componentType" : 5123,
            "count" : 2964,
            "type" : "SCALAR"
        },
        {
            "bufferView" : 12,
            "componentType" : 5126,
            "count" : 1440,
            "max" : [
                1.146782636642456,
                -8.012354373931885e-05,
                15.792071342468262
            ],
            "min" : [
                -0.991265058517456,
                -1.797745704650879,
                0.9974155426025391
            ],
            "type" : "VEC3"
        },
        {
            "bufferView" : 13,
            "componentType" : 5126,
            "count" : 1440,
            "type" : "VEC3"
        },
        {
            "bufferView" : 14,
            "componentType" : 5126,
            "count" : 1440,
            "type" : "VEC2"
        },
        {
            "bufferView" : 15,
            "componentType" : 5123,
            "count" : 2736,
            "type" : "SCALAR"
        },
        {
            "bufferView" : 16,
            "componentType" : 5126,
            "count" : 1200,
            "max" : [
                3.2951819896698,
                0.014612056314945221,
                13.770684242248535
            ],
            "min" : [
                1.1571342945098877,
                -1.9076323509216309,
                1.460627555847168
            ],
            "type" : "VEC3"
        },
        {
            "bufferView" : 17,
            "componentType" : 5126,
            "count" : 1200,
            "type" : "VEC3"
        },
        {
            "bufferView" : 18,
            "componentType" : 5126,
            "count" : 1200,
            "type" : "VEC2"
        },
        {
            "bufferView" : 19,
            "componentType" : 5123,
            "count" : 2280,
            "type" : "SCALAR"
        },
        {
            "bufferView" : 20,
            "componentType" : 5126,
            "count" : 120,
            "max" : [
                -1.2142348289489746,
                -0.006789525505155325,
                0.38021278381347656
            ],
            "min" : [
                -3.3522820472717285,
                -1.839846134185791,
                -1.6197872161865234
            ],
            "type" : "VEC3"
        },
        {
            "bufferView" : 21,
            "componentType" : 5126,
            "count" : 120,
            "type" : "VEC3"
        },
        {
            "bufferView" : 22,
            "componentType" : 5126,
            "count" : 120,
            "type" : "VEC2"
        },
        {
            "bufferView" : 23,
            "componentType" : 5123,
            "count" : 228,
            "type" : "SCALAR"
        },
        {
            "bufferView" : 24,
            "componentType" : 5126,
            "count" : 120,
            "max" : [
                3.173595905303955,
                -0.006790479179471731,
                15.803539276123047
            ],
            "min" : [
                1.0355486869812012,
                -1.8398470878601074,
                13.803539276123047
            ],
            "type" : "VEC3"
        },
        {
            "bufferView" : 25,
            "componentType" : 5126,
            "count" : 120,
            "type" : "VEC3"
        },
        {
            "bufferView" : 26,
            "componentType" : 5126,
            "count" : 120,
            "type" : "VEC2"
        },
        {
            "bufferView" : 27,
            "componentType" : 5126,
            "count" : 120,
            "max" : [
                5.35878849029541,
                0.001602365169674158,
                13.38578987121582
            ],
            "min" : [
                3.22074031829834,
                -1.1997417211532593,
                1.6724534034729004
            ],
            "type" : "VEC3"
        },
        {
            "bufferView" : 28,
            "componentType" : 5126,
            "count" : 120,
            "type" : "VEC3"
        },
        {
            "bufferView" : 29,
            "componentType" : 5126,
            "count" : 120,
            "type" : "VEC2"
        },
        {
            "bufferView" : 30,
            "componentType" : 5126,
            "count" : 120,
            "max" : [
                3.173595905303955,
                -0.006790479179471731,
                1.444748878479004
            ],
            "min" : [
                1.0355486869812012,
                -1.8398470878601074,
                -0.5552511215209961
            ],
            "type" : "VEC3"
        },
        {
            "bufferView" : 31,
            "componentType" : 5126,
            "count" : 120,
            "type" : "VEC3"
        },
        {
            "bufferView" : 32,
            "componentType" : 5126,
            "count" : 120,
            "type" : "VEC2"
        },
        {
            "bufferView" : 33,
            "componentType" : 5126,
            "count" : 2934,
            "max" : [
                8.482627868652344,
                -0.5654048919677734,
                18.809049606323242
            ],
            "min" : [
                -50.47991180419922,
                -20.99931526184082,
                -4.114398956298828
            ],
            "type" : "VEC3"
        },
        {
            "bufferView" : 34,
            "componentType" : 5126,
            "count" : 2934,
            "type" : "VEC3"
        },
        {
            "bufferView" : 35,
            "componentType" : 5126,
            "count" : 2934,
            "type" : "VEC2"
        },
        {
            "bufferView" : 36,
            "componentType" : 5123,
            "count" : 4884,
            "type" : "SCALAR"
        },
        {
            "bufferView" : 37,
            "componentType" : 5126,
            "count" : 12259,
            "max" : [
                2.429910659790039,
                0.09672167897224426,
                16.158885955810547
            ],
            "min" : [
                -5.404786586761475,
                -0.013885539025068283,
                -1.0474910736083984
            ],
            "type" : "VEC3"
        },
        {
            "bufferView" : 38,
            "componentType" : 5126,
            "count" : 12259,
            "type" : "VEC3"
        },
        {
            "bufferView" : 39,
            "componentType" : 5126,
            "count" : 12259,
            "type" : "VEC2"
        },
        {
            "bufferView" : 40,
            "componentType" : 5123,
            "count" : 20928,
            "type" : "SCALAR"
        }
    ],
    "bufferViews" : [
        {
            "buffer" : 0,
            "byteLength" : 1440,
            "byteOffset" : 0
        },
        {
            "buffer" : 0,
            "byteLength" : 1440,
            "byteOffset" : 1440
        },
        {
            "buffer" : 0,
            "byteLength" : 960,
            "byteOffset" : 2880
        },
        {
            "buffer" : 0,
            "byteLength" : 456,
            "byteOffset" : 3840
        },
        {
            "buffer" : 0,
            "byteLength" : 18720,
            "byteOffset" : 4296
        },
        {
            "buffer" : 0,
            "byteLength" : 18720,
            "byteOffset" : 23016
        },
        {
            "buffer" : 0,
            "byteLength" : 12480,
            "byteOffset" : 41736
        },
        {
            "buffer" : 0,
            "byteLength" : 5928,
            "byteOffset" : 54216
        },
        {
            "buffer" : 0,
            "byteLength" : 18720,
            "byteOffset" : 60144
        },
        {
            "buffer" : 0,
            "byteLength" : 18720,
            "byteOffset" : 78864
        },
        {
            "buffer" : 0,
            "byteLength" : 12480,
            "byteOffset" : 97584
        },
        {
            "buffer" : 0,
            "byteLength" : 5928,
            "byteOffset" : 110064
        },
        {
            "buffer" : 0,
            "byteLength" : 17280,
            "byteOffset" : 115992
        },
        {
            "buffer" : 0,
            "byteLength" : 17280,
            "byteOffset" : 133272
        },
        {
            "buffer" : 0,
            "byteLength" : 11520,
            "byteOffset" : 150552
        },
        {
            "buffer" : 0,
            "byteLength" : 5472,
            "byteOffset" : 162072
        },
        {
            "buffer" : 0,
            "byteLength" : 14400,
            "byteOffset" : 167544
        },
        {
            "buffer" : 0,
            "byteLength" : 14400,
            "byteOffset" : 181944
        },
        {
            "buffer" : 0,
            "byteLength" : 9600,
            "byteOffset" : 196344
        },
        {
            "buffer" : 0,
            "byteLength" : 4560,
            "byteOffset" : 205944
        },
        {
            "buffer" : 0,
            "byteLength" : 1440,
            "byteOffset" : 210504
        },
        {
            "buffer" : 0,
            "byteLength" : 1440,
            "byteOffset" : 211944
        },
        {
            "buffer" : 0,
            "byteLength" : 960,
            "byteOffset" : 213384
        },
        {
            "buffer" : 0,
            "byteLength" : 456,
            "byteOffset" : 214344
        },
        {
            "buffer" : 0,
            "byteLength" : 1440,
            "byteOffset" : 214800
        },
        {
            "buffer" : 0,
            "byteLength" : 1440,
            "byteOffset" : 216240
        },
        {
            "buffer" : 0,
            "byteLength" : 960,
            "byteOffset" : 217680
        },
        {
            "buffer" : 0,
            "byteLength" : 1440,
            "byteOffset" : 218640
        },
        {
            "buffer" : 0,
            "byteLength" : 1440,
            "byteOffset" : 220080
        },
        {
            "buffer" : 0,
            "byteLength" : 960,
            "byteOffset" : 221520
        },
        {
            "buffer" : 0,
            "byteLength" : 1440,
            "byteOffset" : 222480
        },
        {
            "buffer" : 0,
            "byteLength" : 1440,
            "byteOffset" : 223920
        },
        {
            "buffer" : 0,
            "byteLength" : 960,
            "byteOffset" : 225360
        },
        {
            "buffer" : 0,
            "byteLength" : 35208,
            "byteOffset" : 226320
        },
        {
            "buffer" : 0,
            "byteLength" : 35208,
            "byteOffset" : 261528
        },
        {
            "buffer" : 0,
            "byteLength" : 23472,
            "byteOffset" : 296736
        },
        {
            "buffer" : 0,
            "byteLength" : 9768,
            "byteOffset" : 320208
        },
        {
            "buffer" : 0,
            "byteLength" : 147108,
            "byteOffset" : 329976
        },
        {
            "buffer" : 0,
            "byteLength" : 147108,
            "byteOffset" : 477084
        },
        {
            "buffer" : 0,
            "byteLength" : 98072,
            "byteOffset" : 624192
        },
        {
            "buffer" : 0,
            "byteLength" : 41856,
            "byteOffset" : 722264
        }
    ],
    "buffers" : [
        {
            "byteLength" : 764120,
            "uri" : "data:application/octet-stream;base64,"
        }
    ]
}
