{
    "asset" : {
        "generator" : "Khronos glTF Blender I/O v3.2.40",
        "version" : "2.0"
    },
    "scene" : 0,
    "scenes" : [
        {
            "name" : "Scene",
            "nodes" : [
                0
            ]
        }
    ],
    "nodes" : [
        {
            "mesh" : 0,
            "name" : "CordCylinder.001",
            "rotation" : [
                0,
                0,
                -0.7071068286895752,
                0.7071068286895752
            ],
            "scale" : [
                0.6274002194404602,
                0.145290344953537,
                0.6274002194404602
            ],
            "translation" : [
                -1.9939813613891602,
                0.33379459381103516,
                -1.2938077449798584
            ]
        }
    ],
    "materials" : [
        {
            "doubleSided" : true,
            "name" : "MainPC.001",
            "pbrMetallicRoughness" : {
                "baseColorFactor" : [
                    0.8000000715255737,
                    0.7417610883712769,
                    0.5266092419624329,
                    1
                ],
                "metallicFactor" : 0,
                "roughnessFactor" : 0.5
            }
        },
        {
            "doubleSided" : true,
            "name" : "MainPC.003",
            "pbrMetallicRoughness" : {
                "baseColorFactor" : [
                    0.8000000715255737,
                    0.7417610883712769,
                    0.5266092419624329,
                    1
                ],
                "metallicFactor" : 0,
                "roughnessFactor" : 0.5
            }
        },
        {
            "doubleSided" : true,
            "name" : "Material.006",
            "pbrMetallicRoughness" : {
                "baseColorFactor" : [
                    0.02186525985598564,
                    0.013063960708677769,
                    0.009334064088761806,
                    1
                ],
                "metallicFactor" : 0,
                "roughnessFactor" : 0.8727272748947144
            }
        }
    ],
    "meshes" : [
        {
            "name" : "Cylinder.005",
            "primitives" : [
                {
                    "attributes" : {
                        "POSITION" : 0,
                        "NORMAL" : 1,
                        "TEXCOORD_0" : 2
                    },
                    "indices" : 3,
                    "material" : 0
                },
                {
                    "attributes" : {
                        "POSITION" : 4,
                        "NORMAL" : 5,
                        "TEXCOORD_0" : 6
                    },
                    "indices" : 7,
                    "material" : 1
                },
                {
                    "attributes" : {
                        "POSITION" : 8,
                        "NORMAL" : 9,
                        "TEXCOORD_0" : 10
                    },
                    "indices" : 11,
                    "material" : 2
                }
            ]
        }
    ],
    "accessors" : [
        {
            "bufferView" : 0,
            "componentType" : 5126,
            "count" : 2834,
            "max" : [
                0.11397334933280945,
                1.7349998950958252,
                0.7299078106880188
            ],
            "min" : [
                -0.1309930980205536,
                -2.0419366359710693,
                -0.08370929956436157
            ],
            "type" : "VEC3"
        },
        {
            "bufferView" : 1,
            "componentType" : 5126,
            "count" : 2834,
            "type" : "VEC3"
        },
        {
            "bufferView" : 2,
            "componentType" : 5126,
            "count" : 2834,
            "type" : "VEC2"
        },
        {
            "bufferView" : 3,
            "componentType" : 5123,
            "count" : 5604,
            "type" : "SCALAR"
        },
        {
            "bufferView" : 4,
            "componentType" : 5126,
            "count" : 326,
            "max" : [
                0.5092852711677551,
                35.144813537597656,
                -2.2376418113708496
            ],
            "min" : [
                -0.2760792374610901,
                24.996902465820312,
                -3.405675172805786
            ],
            "type" : "VEC3"
        },
        {
            "bufferView" : 5,
            "componentType" : 5126,
            "count" : 326,
            "type" : "VEC3"
        },
        {
            "bufferView" : 6,
            "componentType" : 5126,
            "count" : 326,
            "type" : "VEC2"
        },
        {
            "bufferView" : 7,
            "componentType" : 5123,
            "count" : 498,
            "type" : "SCALAR"
        },
        {
            "bufferView" : 8,
            "componentType" : 5126,
            "count" : 1305,
            "max" : [
                0.5720716714859009,
                25.39702606201172,
                0.3945772647857666
            ],
            "min" : [
                -0.06670498847961426,
                -11.857182502746582,
                -4.882549285888672
            ],
            "type" : "VEC3"
        },
        {
            "bufferView" : 9,
            "componentType" : 5126,
            "count" : 1305,
            "type" : "VEC3"
        },
        {
            "bufferView" : 10,
            "componentType" : 5126,
            "count" : 1305,
            "type" : "VEC2"
        },
        {
            "bufferView" : 11,
            "componentType" : 5123,
            "count" : 6912,
            "type" : "SCALAR"
        }
    ],
    "bufferViews" : [
        {
            "buffer" : 0,
            "byteLength" : 34008,
            "byteOffset" : 0
        },
        {
            "buffer" : 0,
            "byteLength" : 34008,
            "byteOffset" : 34008
        },
        {
            "buffer" : 0,
            "byteLength" : 22672,
            "byteOffset" : 68016
        },
        {
            "buffer" : 0,
            "byteLength" : 11208,
            "byteOffset" : 90688
        },
        {
            "buffer" : 0,
            "byteLength" : 3912,
            "byteOffset" : 101896
        },
        {
            "buffer" : 0,
            "byteLength" : 3912,
            "byteOffset" : 105808
        },
        {
            "buffer" : 0,
            "byteLength" : 2608,
            "byteOffset" : 109720
        },
        {
            "buffer" : 0,
            "byteLength" : 996,
            "byteOffset" : 112328
        },
        {
            "buffer" : 0,
            "byteLength" : 15660,
            "byteOffset" : 113324
        },
        {
            "buffer" : 0,
            "byteLength" : 15660,
            "byteOffset" : 128984
        },
        {
            "buffer" : 0,
            "byteLength" : 10440,
            "byteOffset" : 144644
        },
        {
            "buffer" : 0,
            "byteLength" : 13824,
            "byteOffset" : 155084
        }
    ],
    "buffers" : [
        {
            "byteLength" : 168908,
            "uri" : "data:application/octet-stream;base64,"
        }
    ]
}
