{
    "asset" : {
        "generator" : "Khronos glTF Blender I/O v3.2.40",
        "version" : "2.0"
    },
    "scene" : 0,
    "scenes" : [
        {
            "name" : "Scene",
            "nodes" : [
                0
            ]
        }
    ],
    "nodes" : [
        {
            "mesh" : 0,
            "name" : "FloppyDrive.002",
            "scale" : [
                1,
                0.47857046127319336,
                0.7882362604141235
            ],
            "translation" : [
                -0.48560941219329834,
                0.4796859920024872,
                -2.7106127738952637
            ]
        }
    ],
    "materials" : [
        {
            "doubleSided" : true,
            "name" : "MainPC.004",
            "pbrMetallicRoughness" : {
                "baseColorFactor" : [
                    0.8000000715255737,
                    0.7417610883712769,
                    0.5266092419624329,
                    1
                ],
                "metallicFactor" : 0,
                "roughnessFactor" : 0.5
            }
        },
        {
            "doubleSided" : true,
            "name" : "Chocofur_Glossy_Basic.003",
            "pbrMetallicRoughness" : {}
        },
        {
            "doubleSided" : true,
            "name" : "Buttons.001",
            "pbrMetallicRoughness" : {
                "baseColorFactor" : [
                    0,
                    0,
                    0,
                    1
                ],
                "metallicFactor" : 0,
                "roughnessFactor" : 0.5
            }
        },
        {
            "doubleSided" : true,
            "name" : "MainPC.005",
            "pbrMetallicRoughness" : {
                "baseColorFactor" : [
                    0.8000000715255737,
                    0.7417610883712769,
                    0.5266092419624329,
                    1
                ],
                "metallicFactor" : 0,
                "roughnessFactor" : 0.5
            }
        }
    ],
    "meshes" : [
        {
            "name" : "Cube.036",
            "primitives" : [
                {
                    "attributes" : {
                        "POSITION" : 0,
                        "NORMAL" : 1,
                        "TEXCOORD_0" : 2
                    },
                    "indices" : 3,
                    "material" : 0
                },
                {
                    "attributes" : {
                        "POSITION" : 4,
                        "NORMAL" : 5,
                        "TEXCOORD_0" : 6
                    },
                    "indices" : 7,
                    "material" : 1
                },
                {
                    "attributes" : {
                        "POSITION" : 8,
                        "NORMAL" : 9,
                        "TEXCOORD_0" : 10
                    },
                    "indices" : 11,
                    "material" : 2
                },
                {
                    "attributes" : {
                        "POSITION" : 12,
                        "NORMAL" : 13,
                        "TEXCOORD_0" : 14
                    },
                    "indices" : 15,
                    "material" : 3
                }
            ]
        }
    ],
    "accessors" : [
        {
            "bufferView" : 0,
            "componentType" : 5126,
            "count" : 1084,
            "max" : [
                1,
                1,
                1
            ],
            "min" : [
                -1,
                -1,
                -1
            ],
            "type" : "VEC3"
        },
        {
            "bufferView" : 1,
            "componentType" : 5126,
            "count" : 1084,
            "type" : "VEC3"
        },
        {
            "bufferView" : 2,
            "componentType" : 5126,
            "count" : 1084,
            "type" : "VEC2"
        },
        {
            "bufferView" : 3,
            "componentType" : 5123,
            "count" : 2226,
            "type" : "SCALAR"
        },
        {
            "bufferView" : 4,
            "componentType" : 5126,
            "count" : 206,
            "max" : [
                1,
                0.9375824928283691,
                0.9375825524330139
            ],
            "min" : [
                -0.9364653825759888,
                -0.9375825524330139,
                -0.9375825524330139
            ],
            "type" : "VEC3"
        },
        {
            "bufferView" : 5,
            "componentType" : 5126,
            "count" : 206,
            "type" : "VEC3"
        },
        {
            "bufferView" : 6,
            "componentType" : 5126,
            "count" : 206,
            "type" : "VEC2"
        },
        {
            "bufferView" : 7,
            "componentType" : 5123,
            "count" : 360,
            "type" : "SCALAR"
        },
        {
            "bufferView" : 8,
            "componentType" : 5126,
            "count" : 20,
            "max" : [
                0.9909886717796326,
                -0.23831260204315186,
                -0.38293588161468506
            ],
            "min" : [
                0.9570905566215515,
                -0.29691803455352783,
                -0.561212420463562
            ],
            "type" : "VEC3"
        },
        {
            "bufferView" : 9,
            "componentType" : 5126,
            "count" : 20,
            "type" : "VEC3"
        },
        {
            "bufferView" : 10,
            "componentType" : 5126,
            "count" : 20,
            "type" : "VEC2"
        },
        {
            "bufferView" : 11,
            "componentType" : 5123,
            "count" : 30,
            "type" : "SCALAR"
        },
        {
            "bufferView" : 12,
            "componentType" : 5126,
            "count" : 4,
            "max" : [
                0.7187827229499817,
                0.08701303601264954,
                0.9100158214569092
            ],
            "min" : [
                0.7187827229499817,
                -0.17335227131843567,
                -0.9608476161956787
            ],
            "type" : "VEC3"
        },
        {
            "bufferView" : 13,
            "componentType" : 5126,
            "count" : 4,
            "type" : "VEC3"
        },
        {
            "bufferView" : 14,
            "componentType" : 5126,
            "count" : 4,
            "type" : "VEC2"
        },
        {
            "bufferView" : 15,
            "componentType" : 5123,
            "count" : 6,
            "type" : "SCALAR"
        }
    ],
    "bufferViews" : [
        {
            "buffer" : 0,
            "byteLength" : 13008,
            "byteOffset" : 0
        },
        {
            "buffer" : 0,
            "byteLength" : 13008,
            "byteOffset" : 13008
        },
        {
            "buffer" : 0,
            "byteLength" : 8672,
            "byteOffset" : 26016
        },
        {
            "buffer" : 0,
            "byteLength" : 4452,
            "byteOffset" : 34688
        },
        {
            "buffer" : 0,
            "byteLength" : 2472,
            "byteOffset" : 39140
        },
        {
            "buffer" : 0,
            "byteLength" : 2472,
            "byteOffset" : 41612
        },
        {
            "buffer" : 0,
            "byteLength" : 1648,
            "byteOffset" : 44084
        },
        {
            "buffer" : 0,
            "byteLength" : 720,
            "byteOffset" : 45732
        },
        {
            "buffer" : 0,
            "byteLength" : 240,
            "byteOffset" : 46452
        },
        {
            "buffer" : 0,
            "byteLength" : 240,
            "byteOffset" : 46692
        },
        {
            "buffer" : 0,
            "byteLength" : 160,
            "byteOffset" : 46932
        },
        {
            "buffer" : 0,
            "byteLength" : 60,
            "byteOffset" : 47092
        },
        {
            "buffer" : 0,
            "byteLength" : 48,
            "byteOffset" : 47152
        },
        {
            "buffer" : 0,
            "byteLength" : 48,
            "byteOffset" : 47200
        },
        {
            "buffer" : 0,
            "byteLength" : 32,
            "byteOffset" : 47248
        },
        {
            "buffer" : 0,
            "byteLength" : 12,
            "byteOffset" : 47280
        }
    ],
    "buffers" : [
        {
            "byteLength" : 47292,
            "uri" : "data:application/octet-stream;base64,"
        }
    ]
}
