{
    "asset" : {
        "generator" : "Khronos glTF Blender I/O v3.2.40",
        "version" : "2.0"
    },
    "extensionsUsed" : [
        "KHR_materials_clearcoat"
    ],
    "scene" : 0,
    "scenes" : [
        {
            "name" : "Scene",
            "nodes" : [
                0
            ]
        }
    ],
    "nodes" : [
        {
            "mesh" : 0,
            "name" : "Monitor.noScreen",
            "scale" : [
                1.4993715286254883,
                1.294516682624817,
                1.7038238048553467
            ],
            "translation" : [
                0.016576707363128662,
                2.426490306854248,
                0
            ]
        }
    ],
    "materials" : [
        {
            "doubleSided" : true,
            "name" : "MainPC.002",
            "pbrMetallicRoughness" : {
                "baseColorFactor" : [
                    0.8000000715255737,
                    0.7417610883712769,
                    0.5266092419624329,
                    1
                ],
                "metallicFactor" : 0,
                "roughnessFactor" : 0.5
            }
        },
        {
            "doubleSided" : true,
            "name" : "Back.002",
            "pbrMetallicRoughness" : {
                "baseColorFactor" : [
                    0.015934519469738007,
                    0.013293308205902576,
                    0.009647604078054428,
                    1
                ],
                "metallicFactor" : 0
            }
        },
        {
            "doubleSided" : true,
            "emissiveFactor" : [
                1,
                0.06552468209570872,
                0
            ],
            "extensions" : {
                "KHR_materials_clearcoat" : {
                    "clearcoatFactor" : 1,
                    "clearcoatRoughnessFactor" : 0
                }
            },
            "name" : "RedLight.002",
            "pbrMetallicRoughness" : {
                "baseColorFactor" : [
                    0.8000000715255737,
                    0,
                    0.0035954713821411133,
                    1
                ],
                "metallicFactor" : 0,
                "roughnessFactor" : 0.16818180680274963
            }
        },
        {
            "doubleSided" : true,
            "name" : "Chocofur_Glossy_Basic.011",
            "pbrMetallicRoughness" : {}
        },
        {
            "doubleSided" : true,
            "name" : "Chocofur_Glossy_Basic.012",
            "pbrMetallicRoughness" : {}
        },
        {
            "doubleSided" : true,
            "name" : "Chocofur_Glossy_Basic.010",
            "pbrMetallicRoughness" : {}
        },
        {
            "doubleSided" : true,
            "name" : "Chocofur_Glossy_Basic.008",
            "pbrMetallicRoughness" : {}
        }
    ],
    "meshes" : [
        {
            "name" : "Cube.005",
            "primitives" : [
                {
                    "attributes" : {
                        "POSITION" : 0,
                        "NORMAL" : 1,
                        "TEXCOORD_0" : 2
                    },
                    "indices" : 3,
                    "material" : 0
                },
                {
                    "attributes" : {
                        "POSITION" : 4,
                        "NORMAL" : 5,
                        "TEXCOORD_0" : 6
                    },
                    "indices" : 7,
                    "material" : 1
                },
                {
                    "attributes" : {
                        "POSITION" : 8,
                        "NORMAL" : 9,
                        "TEXCOORD_0" : 10
                    },
                    "indices" : 11,
                    "material" : 2
                },
                {
                    "attributes" : {
                        "POSITION" : 12,
                        "NORMAL" : 13,
                        "TEXCOORD_0" : 14
                    },
                    "indices" : 15,
                    "material" : 3
                },
                {
                    "attributes" : {
                        "POSITION" : 16,
                        "NORMAL" : 17,
                        "TEXCOORD_0" : 18
                    },
                    "indices" : 19,
                    "material" : 4
                },
                {
                    "attributes" : {
                        "POSITION" : 20,
                        "NORMAL" : 21,
                        "TEXCOORD_0" : 22
                    },
                    "indices" : 23,
                    "material" : 5
                },
                {
                    "attributes" : {
                        "POSITION" : 24,
                        "NORMAL" : 25,
                        "TEXCOORD_0" : 26
                    },
                    "indices" : 27,
                    "material" : 6
                }
            ]
        }
    ],
    "accessors" : [
        {
            "bufferView" : 0,
            "componentType" : 5126,
            "count" : 482,
            "max" : [
                1.0087422132492065,
                1,
                1
            ],
            "min" : [
                -1,
                -1,
                -1
            ],
            "type" : "VEC3"
        },
        {
            "bufferView" : 1,
            "componentType" : 5126,
            "count" : 482,
            "type" : "VEC3"
        },
        {
            "bufferView" : 2,
            "componentType" : 5126,
            "count" : 482,
            "type" : "VEC2"
        },
        {
            "bufferView" : 3,
            "componentType" : 5123,
            "count" : 744,
            "type" : "SCALAR"
        },
        {
            "bufferView" : 4,
            "componentType" : 5126,
            "count" : 44,
            "max" : [
                -0.5880669355392456,
                0.5503932237625122,
                0.713114321231842
            ],
            "min" : [
                -1.726352572441101,
                -0.41017383337020874,
                -0.713114321231842
            ],
            "type" : "VEC3"
        },
        {
            "bufferView" : 5,
            "componentType" : 5126,
            "count" : 44,
            "type" : "VEC3"
        },
        {
            "bufferView" : 6,
            "componentType" : 5126,
            "count" : 44,
            "type" : "VEC2"
        },
        {
            "bufferView" : 7,
            "componentType" : 5123,
            "count" : 66,
            "type" : "SCALAR"
        },
        {
            "bufferView" : 8,
            "componentType" : 5126,
            "count" : 20,
            "max" : [
                0.9067749977111816,
                -0.11598452925682068,
                -0.7666351795196533
            ],
            "min" : [
                0.8824966549873352,
                -0.14036329090595245,
                -0.8198671936988831
            ],
            "type" : "VEC3"
        },
        {
            "bufferView" : 9,
            "componentType" : 5126,
            "count" : 20,
            "type" : "VEC3"
        },
        {
            "bufferView" : 10,
            "componentType" : 5126,
            "count" : 20,
            "type" : "VEC2"
        },
        {
            "bufferView" : 11,
            "componentType" : 5123,
            "count" : 30,
            "type" : "SCALAR"
        },
        {
            "bufferView" : 12,
            "componentType" : 5126,
            "count" : 60,
            "max" : [
                1,
                -0.05276525020599365,
                -0.6626369953155518
            ],
            "min" : [
                0.8958508968353271,
                -0.6931543350219727,
                -0.9243993759155273
            ],
            "type" : "VEC3"
        },
        {
            "bufferView" : 13,
            "componentType" : 5126,
            "count" : 60,
            "type" : "VEC3"
        },
        {
            "bufferView" : 14,
            "componentType" : 5126,
            "count" : 60,
            "type" : "VEC2"
        },
        {
            "bufferView" : 15,
            "componentType" : 5123,
            "count" : 90,
            "type" : "SCALAR"
        },
        {
            "bufferView" : 16,
            "componentType" : 5126,
            "count" : 32,
            "max" : [
                0.9669480919837952,
                -0.24373789131641388,
                -0.7677662968635559
            ],
            "min" : [
                0.8172096014022827,
                -0.499385803937912,
                -0.8185845613479614
            ],
            "type" : "VEC3"
        },
        {
            "bufferView" : 17,
            "componentType" : 5126,
            "count" : 32,
            "type" : "VEC3"
        },
        {
            "bufferView" : 18,
            "componentType" : 5126,
            "count" : 32,
            "type" : "VEC2"
        },
        {
            "bufferView" : 19,
            "componentType" : 5123,
            "count" : 48,
            "type" : "SCALAR"
        },
        {
            "bufferView" : 20,
            "componentType" : 5126,
            "count" : 24,
            "max" : [
                1.0120413303375244,
                -0.7432568073272705,
                0.7978839874267578
            ],
            "min" : [
                0.9892232418060303,
                -0.9515590667724609,
                -0.5542553663253784
            ],
            "type" : "VEC3"
        },
        {
            "bufferView" : 21,
            "componentType" : 5126,
            "count" : 24,
            "type" : "VEC3"
        },
        {
            "bufferView" : 22,
            "componentType" : 5126,
            "count" : 24,
            "type" : "VEC2"
        },
        {
            "bufferView" : 23,
            "componentType" : 5123,
            "count" : 36,
            "type" : "SCALAR"
        },
        {
            "bufferView" : 24,
            "componentType" : 5126,
            "count" : 8084,
            "max" : [
                1.018441081047058,
                -0.7692428231239319,
                0.7803817391395569
            ],
            "min" : [
                0.9981303811073303,
                -0.9143118858337402,
                -0.5213983654975891
            ],
            "type" : "VEC3"
        },
        {
            "bufferView" : 25,
            "componentType" : 5126,
            "count" : 8084,
            "type" : "VEC3"
        },
        {
            "bufferView" : 26,
            "componentType" : 5126,
            "count" : 8084,
            "type" : "VEC2"
        },
        {
            "bufferView" : 27,
            "componentType" : 5123,
            "count" : 12300,
            "type" : "SCALAR"
        }
    ],
    "bufferViews" : [
        {
            "buffer" : 0,
            "byteLength" : 5784,
            "byteOffset" : 0
        },
        {
            "buffer" : 0,
            "byteLength" : 5784,
            "byteOffset" : 5784
        },
        {
            "buffer" : 0,
            "byteLength" : 3856,
            "byteOffset" : 11568
        },
        {
            "buffer" : 0,
            "byteLength" : 1488,
            "byteOffset" : 15424
        },
        {
            "buffer" : 0,
            "byteLength" : 528,
            "byteOffset" : 16912
        },
        {
            "buffer" : 0,
            "byteLength" : 528,
            "byteOffset" : 17440
        },
        {
            "buffer" : 0,
            "byteLength" : 352,
            "byteOffset" : 17968
        },
        {
            "buffer" : 0,
            "byteLength" : 132,
            "byteOffset" : 18320
        },
        {
            "buffer" : 0,
            "byteLength" : 240,
            "byteOffset" : 18452
        },
        {
            "buffer" : 0,
            "byteLength" : 240,
            "byteOffset" : 18692
        },
        {
            "buffer" : 0,
            "byteLength" : 160,
            "byteOffset" : 18932
        },
        {
            "buffer" : 0,
            "byteLength" : 60,
            "byteOffset" : 19092
        },
        {
            "buffer" : 0,
            "byteLength" : 720,
            "byteOffset" : 19152
        },
        {
            "buffer" : 0,
            "byteLength" : 720,
            "byteOffset" : 19872
        },
        {
            "buffer" : 0,
            "byteLength" : 480,
            "byteOffset" : 20592
        },
        {
            "buffer" : 0,
            "byteLength" : 180,
            "byteOffset" : 21072
        },
        {
            "buffer" : 0,
            "byteLength" : 384,
            "byteOffset" : 21252
        },
        {
            "buffer" : 0,
            "byteLength" : 384,
            "byteOffset" : 21636
        },
        {
            "buffer" : 0,
            "byteLength" : 256,
            "byteOffset" : 22020
        },
        {
            "buffer" : 0,
            "byteLength" : 96,
            "byteOffset" : 22276
        },
        {
            "buffer" : 0,
            "byteLength" : 288,
            "byteOffset" : 22372
        },
        {
            "buffer" : 0,
            "byteLength" : 288,
            "byteOffset" : 22660
        },
        {
            "buffer" : 0,
            "byteLength" : 192,
            "byteOffset" : 22948
        },
        {
            "buffer" : 0,
            "byteLength" : 72,
            "byteOffset" : 23140
        },
        {
            "buffer" : 0,
            "byteLength" : 97008,
            "byteOffset" : 23212
        },
        {
            "buffer" : 0,
            "byteLength" : 97008,
            "byteOffset" : 120220
        },
        {
            "buffer" : 0,
            "byteLength" : 64672,
            "byteOffset" : 217228
        },
        {
            "buffer" : 0,
            "byteLength" : 24600,
            "byteOffset" : 281900
        }
    ],
    "buffers" : [
        {
            "byteLength" : 306500,
            "uri" : "data:application/octet-stream;base64,"
        }
    ]
}
